<svg xmlns="http://www.w3.org/2000/svg" viewBox="0 0 1000 1250" version="1.1" x="0px" y="0px"><g><path fill="#000000" opacity="1.00" d=" M 618.92 51.03 C 626.92 49.78 634.89 47.92 643.03 47.89 C 678.23 46.23 713.82 60.40 738.37 85.64 C 761.93 109.70 775.86 143.25 774.93 177.03 C 774.85 212.40 758.74 247.31 732.25 270.69 C 761.46 296.68 786.48 327.44 805.41 361.68 C 817.95 384.62 827.87 409.02 834.63 434.28 C 860.84 436.45 886.59 448.02 904.07 467.93 C 917.16 482.64 925.86 501.40 927.86 521.05 C 928.70 533.17 928.15 545.54 924.38 557.17 C 916.87 582.45 898.14 603.81 874.62 615.52 C 866.12 619.91 856.94 622.86 847.59 624.82 C 854.63 662.69 852.32 702.24 840.89 739.03 C 829.02 777.81 807.42 813.22 780.10 843.04 C 753.60 871.68 721.84 895.27 687.33 913.39 C 654.48 930.50 619.32 943.27 583.00 950.65 C 567.57 954.27 551.85 956.67 536.05 957.92 C 512.79 960.00 489.40 961.19 466.07 959.51 C 454.67 958.61 443.19 958.36 431.88 956.55 C 421.73 955.00 411.45 954.21 401.48 951.69 C 387.24 948.73 373.04 945.45 359.22 940.91 C 345.58 935.83 331.94 930.78 318.31 925.69 C 310.92 922.62 303.89 918.79 296.65 915.41 C 288.81 911.84 281.59 907.10 274.12 902.85 C 262.32 896.39 251.92 887.80 240.87 880.22 C 231.81 874.08 224.11 866.23 215.70 859.27 C 208.93 852.74 202.75 845.61 196.20 838.85 C 189.16 831.78 183.34 823.65 177.29 815.75 C 171.70 807.29 166.21 798.76 160.85 790.15 C 156.60 781.91 151.81 773.89 148.79 765.09 C 145.35 755.88 141.78 746.71 138.36 737.50 C 125.77 695.90 124.70 650.81 135.76 608.75 C 117.38 605.15 99.84 596.72 86.08 583.93 C 80.67 578.99 75.41 573.71 71.77 567.29 C 58.63 549.63 52.91 526.79 55.19 504.97 C 57.30 484.19 66.78 464.31 81.40 449.44 C 85.27 445.97 89.05 442.40 93.00 439.02 C 109.60 426.30 130.20 419.32 151.00 418.14 C 154.27 410.48 156.12 402.30 159.79 394.80 C 161.99 390.45 163.35 385.74 165.51 381.38 C 169.81 373.37 173.18 364.88 178.28 357.31 C 196.05 324.93 220.29 296.45 247.61 271.73 C 228.64 251.39 216.70 224.69 214.14 197.00 C 210.96 164.29 221.05 130.39 241.85 104.92 C 249.26 97.65 255.66 89.22 264.26 83.26 C 274.87 75.24 286.67 68.49 299.44 64.60 C 336.34 51.00 379.57 56.85 411.94 79.01 C 424.75 87.29 435.49 98.44 444.62 110.58 C 471.75 89.62 511.87 87.51 541.08 105.39 C 545.17 99.18 549.81 93.33 554.89 87.89 C 558.89 83.50 563.77 80.05 568.30 76.22 C 582.53 63.51 600.51 55.56 618.92 51.03 M 592.85 94.85 C 589.35 97.63 585.97 100.56 582.48 103.34 C 575.01 109.06 569.42 116.79 564.35 124.62 C 567.41 128.68 570.22 132.91 573.10 137.10 C 585.05 136.17 597.19 135.03 609.05 137.43 C 615.18 138.67 622.46 138.90 626.63 144.31 C 632.46 150.96 630.50 162.44 622.76 166.74 C 617.81 170.02 611.74 168.61 606.37 167.44 C 598.82 166.50 591.19 165.73 583.59 166.37 C 585.34 175.13 585.25 184.15 584.32 193.01 C 595.65 195.98 606.89 199.34 617.86 203.44 C 629.15 207.21 639.80 212.59 650.76 217.18 C 671.00 226.77 690.26 238.39 708.35 251.60 C 716.21 245.42 723.01 237.92 728.57 229.61 C 748.90 199.48 750.67 157.56 731.80 126.31 C 722.46 109.80 708.07 96.24 691.08 87.82 C 677.68 81.44 662.93 77.50 648.02 77.75 C 628.51 77.94 608.81 83.44 592.85 94.85 M 317.18 90.38 C 310.60 92.56 303.80 94.29 297.63 97.55 C 289.18 102.08 280.83 107.23 274.31 114.37 C 269.70 119.41 264.46 123.93 260.68 129.68 C 247.58 148.87 241.44 172.84 244.17 195.95 C 246.55 217.20 256.10 237.62 271.13 252.86 C 283.01 243.46 296.28 236.06 309.16 228.14 C 322.07 220.98 335.34 214.45 349.03 208.91 C 360.09 204.97 370.87 200.15 382.28 197.23 C 391.16 194.83 399.90 191.80 408.98 190.18 C 408.14 182.59 408.88 174.99 409.62 167.42 C 401.69 167.01 393.71 167.61 385.92 169.12 C 382.06 169.89 378.01 171.07 374.12 169.78 C 367.76 168.02 363.06 161.65 363.37 155.04 C 363.35 148.45 368.30 142.30 374.72 140.84 C 389.47 137.30 404.82 136.53 419.89 138.16 C 421.07 136.30 422.26 134.43 423.46 132.58 C 419.10 126.65 414.79 120.61 409.42 115.54 C 385.97 91.71 349.49 81.72 317.18 90.38 M 460.30 136.26 C 445.64 147.57 437.71 166.34 438.58 184.72 C 458.92 182.03 479.47 180.73 499.99 181.38 C 511.55 181.18 523.02 182.82 534.52 183.75 C 541.36 184.25 548.09 185.68 554.88 186.61 C 556.25 168.68 549.07 150.41 535.84 138.24 C 527.05 130.87 516.50 125.29 504.99 123.92 C 489.24 121.51 472.54 126.01 460.30 136.26 M 459.04 212.59 C 442.11 213.76 425.50 217.31 408.94 220.84 C 400.07 223.31 391.20 225.79 382.39 228.45 C 370.88 232.83 359.15 236.69 348.04 242.04 C 331.82 249.10 316.76 258.42 301.80 267.78 C 275.01 285.72 251.08 307.82 230.76 332.83 C 211.48 356.79 196.43 383.96 185.01 412.46 C 190.67 415.23 195.91 418.82 201.72 421.32 C 238.24 438.05 283.42 435.38 317.01 413.02 C 331.19 404.32 343.24 392.21 352.26 378.25 C 356.56 372.19 359.47 365.10 364.90 359.87 C 370.39 354.90 379.56 355.09 384.88 360.22 C 387.96 363.28 389.59 367.42 392.05 370.95 C 414.07 404.42 453.71 425.87 493.93 424.57 C 531.74 424.96 568.78 405.24 590.45 374.42 C 592.86 370.95 595.67 367.33 599.91 366.10 C 604.70 364.35 609.81 365.88 614.30 367.78 C 619.12 369.58 621.93 374.17 625.84 377.26 C 638.88 389.16 654.53 398.15 671.38 403.42 C 689.97 409.20 709.95 409.87 729.09 406.71 C 748.60 403.37 767.00 394.62 782.50 382.38 C 768.29 355.25 750.00 330.27 728.46 308.50 C 702.94 282.39 672.57 261.19 639.83 245.16 C 628.58 240.33 617.57 234.89 605.95 231.01 C 597.98 227.97 589.77 225.69 581.60 223.28 C 562.95 218.71 544.15 214.28 524.93 212.98 C 514.32 211.77 503.67 211.14 492.99 211.26 C 481.65 210.71 470.35 211.93 459.04 212.59 M 296.46 455.59 C 256.47 467.80 211.38 462.94 175.42 441.37 C 172.06 454.11 169.45 467.05 167.82 480.12 C 167.42 484.08 165.66 487.96 162.55 490.52 C 157.64 494.84 149.80 495.26 144.43 491.54 C 140.04 488.63 137.39 483.27 137.90 478.01 C 138.91 468.31 140.78 458.72 142.67 449.16 C 129.74 451.77 116.91 457.04 107.37 466.37 C 97.93 474.17 90.86 484.78 87.36 496.52 C 83.07 510.19 84.00 525.27 89.59 538.43 C 94.72 549.51 102.36 559.55 112.35 566.67 C 121.84 573.88 133.30 577.79 144.86 580.20 C 147.04 574.66 149.35 569.18 151.87 563.79 C 154.62 557.87 161.60 554.48 167.97 555.76 C 174.35 556.83 179.58 562.49 180.14 568.94 C 180.67 572.95 178.98 576.74 177.34 580.28 C 157.73 623.29 152.59 672.99 164.39 718.86 C 166.74 730.08 171.84 740.44 175.61 751.21 C 181.47 768.34 191.95 783.28 201.71 798.36 C 207.16 805.51 212.47 812.81 218.86 819.16 C 226.11 826.55 232.67 834.67 240.69 841.26 C 246.50 846.14 251.92 851.53 258.23 855.78 C 265.86 861.17 273.40 866.68 281.04 872.05 C 286.78 875.70 292.76 878.94 298.59 882.45 C 306.19 887.10 314.42 890.56 322.36 894.57 C 329.45 898.31 337.16 900.59 344.61 903.49 C 356.37 907.67 367.84 912.75 379.98 915.81 C 389.59 918.72 399.50 920.46 409.28 922.72 C 418.03 924.79 427.03 925.46 435.90 926.84 C 445.51 928.39 455.26 928.64 464.95 929.39 C 475.59 930.26 486.27 930.32 496.94 930.39 C 523.01 929.10 549.27 927.78 574.77 921.76 C 591.25 918.40 607.58 914.15 623.41 908.44 C 673.80 890.98 720.92 862.59 757.41 823.42 C 772.53 806.73 786.26 788.52 796.38 768.33 C 811.47 740.25 820.08 708.71 821.45 676.87 C 822.88 643.08 815.71 609.09 801.47 578.46 C 799.20 573.95 799.18 568.34 801.80 563.98 C 804.59 559.05 810.32 556.02 815.97 556.58 C 821.10 556.87 825.90 560.13 828.14 564.75 C 832.95 574.73 836.78 585.15 840.31 595.64 C 857.79 592.63 874.24 583.17 885.09 569.06 C 893.33 558.23 898.47 544.74 898.20 531.04 C 898.75 515.05 891.99 499.33 881.38 487.56 C 871.05 475.82 856.43 468.53 841.27 465.35 C 842.26 471.51 843.06 477.70 843.74 483.91 C 844.30 488.07 844.64 492.60 842.37 496.36 C 838.77 503.32 829.33 506.23 822.44 502.51 C 817.35 500.06 814.32 494.59 814.10 489.06 C 811.58 462.10 805.12 435.54 795.24 410.35 C 773.25 426.02 747.08 436.28 720.03 437.98 C 697.47 439.91 674.34 437.13 653.22 428.80 C 636.56 422.43 621.05 413.04 607.70 401.21 C 585.07 428.13 552.79 446.84 518.07 452.67 C 500.20 455.34 481.88 455.30 464.08 452.12 C 429.26 445.54 397.19 426.00 374.98 398.44 C 356.11 425.53 327.99 445.86 296.46 455.59 Z"/><path fill="#000000" opacity="1.00" d=" M 378.49 571.58 C 399.58 567.75 422.43 576.48 435.54 593.46 C 440.27 599.35 439.31 608.74 433.58 613.64 C 427.97 618.89 418.23 618.68 412.99 613.01 C 409.85 609.42 406.40 605.99 402.06 603.90 C 391.87 598.56 379.14 600.29 369.98 606.93 C 365.69 609.90 362.96 615.10 357.62 616.46 C 350.42 618.76 341.96 614.76 339.33 607.65 C 337.32 602.73 338.20 596.79 341.60 592.70 C 347.12 585.73 354.66 580.69 362.40 576.49 C 367.55 574.26 373.01 572.75 378.49 571.58 Z"/><path fill="#000000" opacity="1.00" d=" M 581.41 571.60 C 602.53 567.73 625.43 576.46 638.55 593.47 C 642.93 598.98 642.46 607.54 637.62 612.62 C 633.16 617.63 625.21 618.91 619.38 615.62 C 615.76 613.69 613.72 609.95 610.54 607.49 C 604.86 602.74 597.36 600.45 590.01 600.69 C 581.30 601.47 572.87 605.56 567.22 612.29 C 562.09 618.17 552.25 618.66 546.48 613.47 C 540.82 608.81 539.55 599.80 543.80 593.80 C 549.31 586.21 557.32 580.89 565.46 576.47 C 570.56 574.26 575.98 572.76 581.41 571.60 Z"/><path fill="#000000" opacity="1.00" d=" M 479.25 642.33 C 492.54 640.23 506.66 642.13 518.60 648.49 C 535.27 656.42 547.80 671.70 554.19 688.84 C 560.44 705.39 561.12 724.04 556.03 740.99 C 549.68 763.93 531.87 783.76 508.95 790.89 C 495.64 794.89 481.08 794.73 468.00 789.92 C 452.43 784.63 439.29 773.14 431.09 758.98 C 420.59 741.42 417.48 719.83 421.96 699.92 C 423.79 689.35 428.67 679.56 434.75 670.83 C 445.07 656.03 461.40 645.31 479.25 642.33 M 481.39 672.47 C 472.73 674.81 464.87 680.25 459.66 687.56 C 445.29 706.58 446.92 736.16 464.05 752.96 C 473.13 762.10 487.21 766.03 499.63 762.38 C 507.44 759.87 514.50 754.98 519.37 748.35 C 528.01 737.09 531.13 722.02 528.56 708.15 C 526.27 695.58 519.13 683.62 508.05 676.93 C 500.29 671.81 490.39 670.24 481.39 672.47 Z"/></g></svg>