<?xml version="1.0" encoding="UTF-8"?>
<svg width="875px" height="914px" viewBox="0 0 875 914" version="1.1" xmlns="http://www.w3.org/2000/svg" xmlns:xlink="http://www.w3.org/1999/xlink">
    <!-- Generator: Sketch 47.1 (45422) - http://www.bohemiancoding.com/sketch -->
    <title>svg-babyGirl</title>
    <desc>Created with Sketch.</desc>
    <defs></defs>
    <g id="Page-1" stroke="none" stroke-width="1" fill="none" fill-rule="evenodd">
        <g id="svg-babyGirl" fill-rule="nonzero" fill="#000000">
            <path d="M564.92,4.03 C572.92,2.78 580.89,0.92 589.03,0.89 C624.23,-0.77 659.82,13.4 684.37,38.64 C707.93,62.7 721.86,96.25 720.93,130.03 C720.85,165.4 704.74,200.31 678.25,223.69 C707.46,249.68 732.48,280.44 751.41,314.68 C763.95,337.62 773.87,362.02 780.63,387.28 C806.84,389.45 832.59,401.02 850.07,420.93 C863.16,435.64 871.86,454.4 873.86,474.05 C874.7,486.17 874.15,498.54 870.38,510.17 C862.87,535.45 844.14,556.81 820.62,568.52 C812.12,572.91 802.94,575.86 793.59,577.82 C800.63,615.69 798.32,655.24 786.89,692.03 C775.02,730.81 753.42,766.22 726.1,796.04 C699.6,824.68 667.84,848.27 633.33,866.39 C600.48,883.5 565.32,896.27 529,903.65 C513.57,907.27 497.85,909.67 482.05,910.92 C458.79,913 435.4,914.19 412.07,912.51 C400.67,911.61 389.19,911.36 377.88,909.55 C367.73,908 357.45,907.21 347.48,904.69 C333.24,901.73 319.04,898.45 305.22,893.91 C291.58,888.83 277.94,883.78 264.31,878.69 C256.92,875.62 249.89,871.79 242.65,868.41 C234.81,864.84 227.59,860.1 220.12,855.85 C208.32,849.39 197.92,840.8 186.87,833.22 C177.81,827.08 170.11,819.23 161.7,812.27 C154.93,805.74 148.75,798.61 142.2,791.85 C135.16,784.78 129.34,776.65 123.29,768.75 C117.7,760.29 112.21,751.76 106.85,743.15 C102.6,734.91 97.81,726.89 94.79,718.09 C91.35,708.88 87.78,699.71 84.36,690.5 C71.77,648.9 70.7,603.81 81.76,561.75 C63.38,558.15 45.84,549.72 32.08,536.93 C26.67,531.99 21.41,526.71 17.77,520.29 C4.63,502.63 -1.09,479.79 1.19,457.97 C3.3,437.19 12.78,417.31 27.4,402.44 C31.27,398.97 35.05,395.4 39,392.02 C55.6,379.3 76.2,372.32 97,371.14 C100.27,363.48 102.12,355.3 105.79,347.8 C107.99,343.45 109.35,338.74 111.51,334.38 C115.81,326.37 119.18,317.88 124.28,310.31 C142.05,277.93 166.29,249.45 193.61,224.73 C174.64,204.39 162.7,177.69 160.14,150 C156.96,117.29 167.05,83.39 187.85,57.92 C195.26,50.65 201.66,42.22 210.26,36.26 C220.87,28.24 232.67,21.49 245.44,17.6 C282.34,4 325.57,9.85 357.94,32.01 C370.75,40.29 381.49,51.44 390.62,63.58 C417.75,42.62 457.87,40.51 487.08,58.39 C491.17,52.18 495.81,46.33 500.89,40.89 C504.89,36.5 509.77,33.05 514.3,29.22 C528.53,16.51 546.51,8.56 564.92,4.03 L564.92,4.03 Z M538.85,47.85 C535.35,50.63 531.97,53.56 528.48,56.34 C521.01,62.06 515.42,69.79 510.35,77.62 C513.41,81.68 516.22,85.91 519.1,90.1 C531.05,89.17 543.19,88.03 555.05,90.43 C561.18,91.67 568.46,91.9 572.63,97.31 C578.46,103.96 576.5,115.44 568.76,119.74 C563.81,123.02 557.74,121.61 552.37,120.44 C544.82,119.5 537.19,118.73 529.59,119.37 C531.34,128.13 531.25,137.15 530.32,146.01 C541.65,148.98 552.89,152.34 563.86,156.44 C575.15,160.21 585.8,165.59 596.76,170.18 C617,179.77 636.26,191.39 654.35,204.6 C662.21,198.42 669.01,190.92 674.57,182.61 C694.9,152.48 696.67,110.56 677.8,79.31 C668.46,62.8 654.07,49.24 637.08,40.82 C623.68,34.44 608.93,30.5 594.02,30.75 C574.51,30.94 554.81,36.44 538.85,47.85 L538.85,47.85 Z M263.18,43.38 C256.6,45.56 249.8,47.29 243.63,50.55 C235.18,55.08 226.83,60.23 220.31,67.37 C215.7,72.41 210.46,76.93 206.68,82.68 C193.58,101.87 187.44,125.84 190.17,148.95 C192.55,170.2 202.1,190.62 217.13,205.86 C229.01,196.46 242.28,189.06 255.16,181.14 C268.07,173.98 281.34,167.45 295.03,161.91 C306.09,157.97 316.87,153.15 328.28,150.23 C337.16,147.83 345.9,144.8 354.98,143.18 C354.14,135.59 354.88,127.99 355.62,120.42 C347.69,120.01 339.71,120.61 331.92,122.12 C328.06,122.89 324.01,124.07 320.12,122.78 C313.76,121.02 309.06,114.65 309.37,108.04 C309.35,101.45 314.3,95.3 320.72,93.84 C335.47,90.3 350.82,89.53 365.89,91.16 C367.07,89.3 368.26,87.43 369.46,85.58 C365.1,79.65 360.79,73.61 355.42,68.54 C331.97,44.71 295.49,34.72 263.18,43.38 L263.18,43.38 Z M406.3,89.26 C391.64,100.57 383.71,119.34 384.58,137.72 C404.92,135.03 425.47,133.73 445.99,134.38 C457.55,134.18 469.02,135.82 480.52,136.75 C487.36,137.25 494.09,138.68 500.88,139.61 C502.25,121.68 495.07,103.41 481.84,91.24 C473.05,83.87 462.5,78.29 450.99,76.92 C435.24,74.51 418.54,79.01 406.3,89.26 L406.3,89.26 Z M405.04,165.59 C388.11,166.76 371.5,170.31 354.94,173.84 C346.07,176.31 337.2,178.79 328.39,181.45 C316.88,185.83 305.15,189.69 294.04,195.04 C277.82,202.1 262.76,211.42 247.8,220.78 C221.01,238.72 197.08,260.82 176.76,285.83 C157.48,309.79 142.43,336.96 131.01,365.46 C136.67,368.23 141.91,371.82 147.72,374.32 C184.24,391.05 229.42,388.38 263.01,366.02 C277.19,357.32 289.24,345.21 298.26,331.25 C302.56,325.19 305.47,318.1 310.9,312.87 C316.39,307.9 325.56,308.09 330.88,313.22 C333.96,316.28 335.59,320.42 338.05,323.95 C360.07,357.42 399.71,378.87 439.93,377.57 C477.74,377.96 514.78,358.24 536.45,327.42 C538.86,323.95 541.67,320.33 545.91,319.1 C550.7,317.35 555.81,318.88 560.3,320.78 C565.12,322.58 567.93,327.17 571.84,330.26 C584.88,342.16 600.53,351.15 617.38,356.42 C635.97,362.2 655.95,362.87 675.09,359.71 C694.6,356.37 713,347.62 728.5,335.38 C714.29,308.25 696,283.27 674.46,261.5 C648.94,235.39 618.57,214.19 585.83,198.16 C574.58,193.33 563.57,187.89 551.95,184.01 C543.98,180.97 535.77,178.69 527.6,176.28 C508.95,171.71 490.15,167.28 470.93,165.98 C460.32,164.77 449.67,164.14 438.99,164.26 C427.65,163.71 416.35,164.93 405.04,165.59 L405.04,165.59 Z M242.46,408.59 C202.47,420.8 157.38,415.94 121.42,394.37 C118.06,407.11 115.45,420.05 113.82,433.12 C113.42,437.08 111.66,440.96 108.55,443.52 C103.64,447.84 95.8,448.26 90.43,444.54 C86.04,441.63 83.39,436.27 83.9,431.01 C84.91,421.31 86.78,411.72 88.67,402.16 C75.74,404.77 62.91,410.04 53.37,419.37 C43.93,427.17 36.86,437.78 33.36,449.52 C29.07,463.19 30,478.27 35.59,491.43 C40.72,502.51 48.36,512.55 58.35,519.67 C67.84,526.88 79.3,530.79 90.86,533.2 C93.04,527.66 95.35,522.18 97.87,516.79 C100.62,510.87 107.6,507.48 113.97,508.76 C120.35,509.83 125.58,515.49 126.14,521.94 C126.67,525.95 124.98,529.74 123.34,533.28 C103.73,576.29 98.59,625.99 110.39,671.86 C112.74,683.08 117.84,693.44 121.61,704.21 C127.47,721.34 137.95,736.28 147.71,751.36 C153.16,758.51 158.47,765.81 164.86,772.16 C172.11,779.55 178.67,787.67 186.69,794.26 C192.5,799.14 197.92,804.53 204.23,808.78 C211.86,814.17 219.4,819.68 227.04,825.05 C232.78,828.7 238.76,831.94 244.59,835.45 C252.19,840.1 260.42,843.56 268.36,847.57 C275.45,851.31 283.16,853.59 290.61,856.49 C302.37,860.67 313.84,865.75 325.98,868.81 C335.59,871.72 345.5,873.46 355.28,875.72 C364.03,877.79 373.03,878.46 381.9,879.84 C391.51,881.39 401.26,881.64 410.95,882.39 C421.59,883.26 432.27,883.32 442.94,883.39 C469.01,882.1 495.27,880.78 520.77,874.76 C537.25,871.4 553.58,867.15 569.41,861.44 C619.8,843.98 666.92,815.59 703.41,776.42 C718.53,759.73 732.26,741.52 742.38,721.33 C757.47,693.25 766.08,661.71 767.45,629.87 C768.88,596.08 761.71,562.09 747.47,531.46 C745.2,526.95 745.18,521.34 747.8,516.98 C750.59,512.05 756.32,509.02 761.97,509.58 C767.1,509.87 771.9,513.13 774.14,517.75 C778.95,527.73 782.78,538.15 786.31,548.64 C803.79,545.63 820.24,536.17 831.09,522.06 C839.33,511.23 844.47,497.74 844.2,484.04 C844.75,468.05 837.99,452.33 827.38,440.56 C817.05,428.82 802.43,421.53 787.27,418.35 C788.26,424.51 789.06,430.7 789.74,436.91 C790.3,441.07 790.64,445.6 788.37,449.36 C784.77,456.32 775.33,459.23 768.44,455.51 C763.35,453.06 760.32,447.59 760.1,442.06 C757.58,415.1 751.12,388.54 741.24,363.35 C719.25,379.02 693.08,389.28 666.03,390.98 C643.47,392.91 620.34,390.13 599.22,381.8 C582.56,375.43 567.05,366.04 553.7,354.21 C531.07,381.13 498.79,399.84 464.07,405.67 C446.2,408.34 427.88,408.3 410.08,405.12 C375.26,398.54 343.19,379 320.98,351.44 C302.11,378.53 273.99,398.86 242.46,408.59 Z" id="Shape"></path>
            <path d="M324.49,524.58 C345.58,520.75 368.43,529.48 381.54,546.46 C386.27,552.35 385.31,561.74 379.58,566.64 C373.97,571.89 364.23,571.68 358.99,566.01 C355.85,562.42 352.4,558.99 348.06,556.9 C337.87,551.56 325.14,553.29 315.98,559.93 C311.69,562.9 308.96,568.1 303.62,569.46 C296.42,571.76 287.96,567.76 285.33,560.65 C283.32,555.73 284.2,549.79 287.6,545.7 C293.12,538.73 300.66,533.69 308.4,529.49 C313.55,527.26 319.01,525.75 324.49,524.58 Z" id="Shape"></path>
            <path d="M527.41,524.6 C548.53,520.73 571.43,529.46 584.55,546.47 C588.93,551.98 588.46,560.54 583.62,565.62 C579.16,570.63 571.21,571.91 565.38,568.62 C561.76,566.69 559.72,562.95 556.54,560.49 C550.86,555.74 543.36,553.45 536.01,553.69 C527.3,554.47 518.87,558.56 513.22,565.29 C508.09,571.17 498.25,571.66 492.48,566.47 C486.82,561.81 485.55,552.8 489.8,546.8 C495.31,539.21 503.32,533.89 511.46,529.47 C516.56,527.26 521.98,525.76 527.41,524.6 Z" id="Shape"></path>
            <path d="M425.25,595.33 C438.54,593.23 452.66,595.13 464.6,601.49 C481.27,609.42 493.8,624.7 500.19,641.84 C506.44,658.39 507.12,677.04 502.03,693.99 C495.68,716.93 477.87,736.76 454.95,743.89 C441.64,747.89 427.08,747.73 414,742.92 C398.43,737.63 385.29,726.14 377.09,711.98 C366.59,694.42 363.48,672.83 367.96,652.92 C369.79,642.35 374.67,632.56 380.75,623.83 C391.07,609.03 407.4,598.31 425.25,595.33 L425.25,595.33 Z M427.39,625.47 C418.73,627.81 410.87,633.25 405.66,640.56 C391.29,659.58 392.92,689.16 410.05,705.96 C419.13,715.1 433.21,719.03 445.63,715.38 C453.44,712.87 460.5,707.98 465.37,701.35 C474.01,690.09 477.13,675.02 474.56,661.15 C472.27,648.58 465.13,636.62 454.05,629.93 C446.29,624.81 436.39,623.24 427.39,625.47 Z" id="Shape"></path>
        </g>
    </g>
</svg>